<svg width="409" height="122" viewBox="0 0 409 122" fill="none" xmlns="http://www.w3.org/2000/svg">
    <path fill-rule="evenodd" clip-rule="evenodd" d="M12 0C5.37256 0 0 5.37256 0 12V110C0 116.627 5.37256 122 12 122H80C86.6274 122 92 116.627 92 110V12C92 5.37256 86.6274 0 80 0H12ZM38 37C35.7909 37 34 38.7909 34 41V81C34 83.2091 35.7909 85 38 85H53C55.2091 85 57 83.2091 57 81V41C57 38.7909 55.2091 37 53 37H38Z" fill="#2756B6"/>
    <path fill-rule="evenodd" clip-rule="evenodd" d="M174.75 0H105V122H174.75V86H185.87C192.569 86 198 80.6274 198 74V12C198 5.37256 192.569 0 185.87 0H174.75ZM176 24H167V61H176C177.657 61 179 59.6569 179 58V27C179 25.3431 177.657 24 176 24Z" fill="#1F8E5B"/>
    <path fill-rule="evenodd" clip-rule="evenodd" d="M282 0H211V122H282H303V101H282V71H303V51H282V21H303V0H282Z" fill="#F89E20"/>
    <path fill-rule="evenodd" clip-rule="evenodd" d="M317 0H409V46H385V76H409V122H317V76H341V46H317V0Z" fill="#ED1B39"/>
</svg>
